<?xml version="1.0" encoding="UTF-8" standalone="no"?>
<!DOCTYPE svg PUBLIC "-//W3C//DTD SVG 1.1//EN" "http://www.w3.org/Graphics/SVG/1.1/DTD/svg11.dtd">
<svg width="100%" height="100%" viewBox="0 0 1263 147" version="1.1" xmlns="http://www.w3.org/2000/svg" xmlns:xlink="http://www.w3.org/1999/xlink" xml:space="preserve" xmlns:serif="http://www.serif.com/" style="fill-rule:evenodd;clip-rule:evenodd;stroke-linejoin:round;stroke-miterlimit:2;">
    <g transform="matrix(1,0,0,1,0.000046,0)">
        <g transform="matrix(1,0,0,1,-1.050956,-39.625)">
            <path d="M78.852,133.191C78.852,133.191 86.078,145.445 94.258,151.145C102.434,156.844 96.918,176.98 87.602,184.012C78.281,191.039 67.059,163.305 41.004,177.172C41.004,177.172 57.172,174.512 62.875,180.211C62.875,180.211 51.121,178.645 42.906,184.582C34.691,190.516 8.293,168.051 19.707,157.414C31.117,146.773 31.875,151.336 37.773,132.145C43.668,112.957 63.16,116.094 69.914,128.348C76.664,140.602 83.797,146.586 83.797,146.586C83.797,146.586 79.848,140.387 78.852,133.191ZM105.094,97.477C105.094,97.477 106.711,111.152 101.48,118.086C96.25,125.023 93.586,132.43 97.199,139.84C100.812,147.25 107.566,152.379 112.035,138.035C112.035,138.035 112.414,144.02 109.656,148.199C109.656,148.199 119.168,140.125 118.215,129.488C117.266,118.848 111.652,121.508 112.129,112.199C112.605,102.891 105.094,97.477 105.094,97.477ZM15.805,76.672C15.805,76.672 12.762,87.5 16.473,94.152C20.18,100.801 21.797,105.738 16.188,108.777C16.188,108.777 25.027,109.824 24.363,116.852C23.699,123.883 24.172,137.75 16.09,138.605C8.008,139.461 0.02,129.203 1.16,117.328C2.301,105.453 6.391,108.875 5.82,98.426C5.25,87.977 10.574,81.137 15.805,76.672ZM70.766,52.641C70.766,52.641 76.758,63.848 74,71.828C71.242,79.809 74.57,82.086 74.57,82.086C74.57,82.086 70.672,80.379 70.195,77.051C70.195,77.051 69.34,82.371 71.906,85.793C71.906,85.793 65.156,89.59 65.156,96.812C65.156,101.809 71.086,105.852 74.477,110.012C78.57,115.027 74.664,121.332 82.266,121.172C86.781,121.078 99.398,112.824 94.254,93.199C94.254,93.199 93.492,100.895 90.07,104.504C90.07,104.504 100.34,69.832 70.766,52.641ZM46.805,39.625C46.805,39.625 37.77,45.137 36.344,55.773C34.918,66.414 30.828,70.785 27.594,78.762C24.363,86.742 32.254,107.641 42.047,110.109C51.844,112.578 58.5,89.59 56.406,82.656C54.316,75.723 43.949,73.156 39.766,75.438C39.766,75.438 43.191,70.309 51.367,71.734C51.367,71.734 48.707,68.598 45.473,68.883C45.473,68.883 48.609,66.32 46.234,59.48C43.855,52.641 44.711,43.805 46.805,39.625Z" style="fill:white;"/>
        </g>
        <g transform="matrix(1,0,0,1,-1.050956,-39.625)">
            <path d="M79.348,133.652C79.348,133.652 86.621,145.969 94.848,151.695C103.078,157.422 97.527,177.66 88.152,184.727C78.773,191.789 67.48,163.914 41.262,177.852C41.262,177.852 57.531,175.18 63.273,180.906C63.273,180.906 51.445,179.332 43.176,185.297C34.91,191.266 8.348,168.688 19.828,157.996C31.312,147.305 32.078,151.887 38.008,132.605C43.941,113.32 63.559,116.473 70.352,128.785C77.148,141.102 84.324,147.113 84.324,147.113C84.324,147.113 80.348,140.887 79.348,133.652ZM105.754,97.762C105.754,97.762 107.383,111.508 102.117,118.477C96.855,125.445 94.176,132.891 97.812,140.336C101.449,147.781 108.242,152.938 112.738,138.523C112.738,138.523 113.121,144.535 110.348,148.738C110.348,148.738 119.918,140.621 118.961,129.93C118.004,119.238 112.355,121.914 112.836,112.559C113.312,103.203 105.754,97.762 105.754,97.762ZM15.902,76.855C15.902,76.855 12.844,87.738 16.574,94.422C20.305,101.102 21.934,106.066 16.285,109.121C16.285,109.121 25.188,110.172 24.516,117.234C23.848,124.301 24.324,138.234 16.191,139.094C8.059,139.957 0.02,129.645 1.168,117.715C2.316,105.781 6.43,109.219 5.855,98.719C5.281,88.215 10.641,81.344 15.902,76.855ZM71.211,52.703C71.211,52.703 77.242,63.969 74.465,71.988C71.691,80.008 75.039,82.297 75.039,82.297C75.039,82.297 71.117,80.578 70.637,77.238C70.637,77.238 69.777,82.582 72.359,86.02C72.359,86.02 65.566,89.84 65.566,97.094C65.566,102.117 71.531,106.18 74.945,110.359C79.066,115.398 75.133,121.734 82.785,121.574C87.328,121.48 100.023,113.188 94.848,93.465C94.848,93.465 94.082,101.199 90.637,104.824C90.637,104.824 100.973,69.984 71.211,52.703ZM47.098,39.625C47.098,39.625 38.008,45.164 36.57,55.855C35.137,66.547 31.023,70.938 27.77,78.957C24.516,86.977 32.457,107.977 42.312,110.457C52.168,112.941 58.867,89.84 56.762,82.871C54.656,75.902 44.227,73.324 40.016,75.613C40.016,75.613 43.461,70.461 51.691,71.891C51.691,71.891 49.012,68.742 45.758,69.027C45.758,69.027 48.914,66.449 46.523,59.578C44.133,52.703 44.992,43.828 47.098,39.625Z" style="fill:white;"/>
        </g>
        <g transform="matrix(1,0,0,1,-1.050956,-39.625)">
            <g transform="matrix(1,0,0,1,140,30)">
                <g>
                    <g>
                        <g>
                            <g transform="matrix(1,0,0,1,0.080711,141.472876)">
                                <g>
                                    <path d="M27.031,-105.562L38.922,-42.922L48.984,-105.562L78.188,-105.562L87.891,-46.875L96.906,-105.562L128.297,-105.562L108.094,-0.422L72.422,-0.422L63.688,-44.891L55.109,-0.422L19.141,-0.422L0,-105.562L27.031,-105.562Z" style="fill:white;fill-rule:nonzero;"/>
                                </g>
                            </g>
                        </g>
                    </g>
                    <g>
                        <g transform="matrix(1,0,0,1,131.395108,141.472876)">
                            <g>
                                <path d="M0,-105.562L69.531,-105.562L69.531,-79.234L26.672,-79.234L26.672,-65.938L47.5,-65.938L52.562,-39.688L26.672,-39.688L26.672,-26.672L69.531,-26.672L69.531,-0.422L0,-0.422L0,-105.562Z" style="fill:white;fill-rule:nonzero;"/>
                            </g>
                        </g>
                    </g>
                    <g>
                        <g transform="matrix(1,0,0,1,210.352625,141.472876)">
                            <g>
                                <path d="M0,-105.562L69.531,-105.562L69.531,-79.234L26.672,-79.234L26.672,-65.938L47.5,-65.938L52.562,-39.688L26.672,-39.688L26.672,-26.672L69.531,-26.672L69.531,-0.422L0,-0.422L0,-105.562Z" style="fill:white;fill-rule:nonzero;"/>
                            </g>
                        </g>
                    </g>
                    <g>
                        <g transform="matrix(1,0,0,1,289.310173,141.472876)">
                            <g>
                                <path d="M0,-105.562L26.672,-105.562L26.672,-52.984L52.922,-105.562L79.234,-105.562L52.922,-51.516L79.094,-0.422L50.031,-0.422L38.562,-22.938L27.031,-0.422L0,-0.422L0,-105.562Z" style="fill:white;fill-rule:nonzero;"/>
                            </g>
                        </g>
                    </g>
                    <g>
                        <g transform="matrix(1,0,0,1,370.941837,141.472876)">
                            <g>
                                <path d="M0,-105.203L26.312,-105.203L26.312,-26.312L69.531,-26.312L69.531,-0.078L0,-0.078L0,-105.203Z" style="fill:white;fill-rule:nonzero;"/>
                            </g>
                        </g>
                    </g>
                    <g>
                        <g transform="matrix(1,0,0,1,426.043217,141.472876)">
                            <g>
                                <path d="M0,-105.203L25.547,-105.203L39.125,-58.406L52.562,-105.203L78.75,-105.203L52.219,-24.562L52.219,-0.078L25.891,-0.078L25.891,-25.266L0,-105.203Z" style="fill:white;fill-rule:nonzero;"/>
                            </g>
                        </g>
                    </g>
                    <g>
                        <g transform="matrix(1,0,0,1,558.20204,141.472876)">
                            <g>
                                <path d="M27.031,-105.562L38.922,-42.922L48.984,-105.562L78.188,-105.562L87.891,-46.875L96.906,-105.562L128.297,-105.562L108.094,-0.422L72.422,-0.422L63.688,-44.891L55.109,-0.422L19.141,-0.422L0,-105.562L27.031,-105.562Z" style="fill:white;fill-rule:nonzero;"/>
                            </g>
                        </g>
                    </g>
                    <g>
                        <g transform="matrix(1,0,0,1,689.516438,141.472876)">
                            <g>
                                <rect x="0" y="-105.562" width="26.312" height="105.141" style="fill:white;"/>
                            </g>
                        </g>
                    </g>
                    <g>
                        <g transform="matrix(1,0,0,1,729.628548,141.472876)">
                            <g>
                                <path d="M0,-105.203L26.312,-105.203L26.312,-26.312L69.531,-26.312L69.531,-0.078L0,-0.078L0,-105.203Z" style="fill:white;fill-rule:nonzero;"/>
                            </g>
                        </g>
                    </g>
                    <g>
                        <g transform="matrix(1,0,0,1,806.123072,141.472876)">
                            <g>
                                <path d="M0,-105.203L52.562,-105.203C69.457,-105.016 78.234,-96.266 78.891,-78.953L78.891,-26.312C78.648,-8.82 70.18,-0.078 53.484,-0.078L0,-0.078L0,-105.203ZM27.094,-79.031L27.031,-26.312L42.859,-26.312C49.098,-26.312 52.219,-29.316 52.219,-35.328L52.219,-69.953C52.07,-75.859 49.066,-78.859 43.203,-78.953L27.094,-79.031Z" style="fill:white;fill-rule:nonzero;"/>
                            </g>
                        </g>
                    </g>
                    <g>
                        <g transform="matrix(1,0,0,1,894.862333,141.472876)">
                            <g>
                                <path d="M28.781,-105.562L51.156,-105.562C69.875,-105.375 79.234,-94.441 79.234,-72.766L79.234,-64.531L52.219,-64.531L52.219,-71.359C51.414,-76.379 48.879,-78.891 44.609,-78.891L34.547,-78.891C29.535,-77.953 27.031,-75.555 27.031,-71.703L27.031,-33.922C27.031,-29.703 29.91,-27.285 35.672,-26.672L43.562,-26.672C49.332,-27.328 52.219,-29.859 52.219,-34.266L52.219,-38.219L79.234,-38.219L79.234,-32.094C79.047,-10.977 70.957,-0.422 54.969,-0.422L24.844,-0.422C15.32,-0.422 7.77,-5.816 2.188,-16.609C0.727,-19.754 0,-23.953 0,-29.203L0,-76.422C0,-89.461 5.395,-98.445 16.188,-103.375C19.562,-104.832 23.758,-105.562 28.781,-105.562Z" style="fill:white;fill-rule:nonzero;"/>
                            </g>
                        </g>
                    </g>
                    <g>
                        <g transform="matrix(1,0,0,1,974.101357,141.472876)">
                            <g>
                                <path d="M61.5,-105.562L81.422,-0.422L55.031,-0.422L52.844,-10.484L28.078,-10.844L25.547,-0.422L0,-0.422L20.906,-105.562L61.5,-105.562ZM41.734,-75.797L33.141,-34.625L48.562,-34.625L41.734,-75.797Z" style="fill:white;fill-rule:nonzero;"/>
                            </g>
                        </g>
                    </g>
                    <g>
                        <g transform="matrix(1,0,0,1,1044.754958,141.472876)">
                            <g>
                                <path d="M78.891,-105.562L78.891,-79.234L52.562,-79.234L52.562,-0.422L26.312,-0.422L26.312,-79.234L0,-79.234L0,-105.562L78.891,-105.562Z" style="fill:white;fill-rule:nonzero;"/>
                            </g>
                        </g>
                    </g>
                </g>
            </g>
        </g>
    </g>
</svg>
